<?xml version="1.0" encoding="UTF-8"?>
<svg xmlns="http://www.w3.org/2000/svg" xmlns:xlink="http://www.w3.org/1999/xlink" viewBox="0 0 26 26" version="1.1" width="50px" height="50px">
<g id="surface1">
<path style=" " d="M 21.125 0 L 4.875 0 C 2.183594 0 0 2.183594 0 4.875 L 0 21.125 C 0 23.816406 2.183594 26 4.875 26 L 21.125 26 C 23.816406 26 26 23.816406 26 21.125 L 26 4.875 C 26 2.183594 23.816406 0 21.125 0 Z M 20.464844 14.003906 L 18.03125 14.003906 L 18.03125 23.007813 L 13.96875 23.007813 L 13.96875 14.003906 L 12.390625 14.003906 L 12.390625 10.96875 L 13.96875 10.96875 L 13.96875 9.035156 C 13.96875 6.503906 15.019531 5 18.007813 5 L 21.03125 5 L 21.03125 8.023438 L 19.273438 8.023438 C 18.113281 8.023438 18.035156 8.453125 18.035156 9.265625 L 18.03125 10.96875 L 20.796875 10.96875 Z "/>
</g>
</svg>
